<svg xmlns="http://www.w3.org/2000/svg" viewBox="0 0 1200 420" width="1200" height="420">
  <defs>
    <!-- Animated RGB Gradient -->
    <linearGradient id="rgbGrad" x1="0%" y1="0%" x2="100%" y2="100%">
      <stop offset="0%" style="stop-color:#FF0000">
        <animate attributeName="stop-color" values="#FF0000;#8B0000;#DC143C;#B22222;#FF0000" dur="8s" repeatCount="indefinite"/>
      </stop>
      <stop offset="33%" style="stop-color:#8B0000">
        <animate attributeName="stop-color" values="#8B0000;#DC143C;#B22222;#FF0000;#8B0000" dur="8s" repeatCount="indefinite"/>
      </stop>
      <stop offset="66%" style="stop-color:#DC143C">
        <animate attributeName="stop-color" values="#DC143C;#B22222;#FF0000;#8B0000;#DC143C" dur="8s" repeatCount="indefinite"/>
      </stop>
      <stop offset="100%" style="stop-color:#B22222">
        <animate attributeName="stop-color" values="#B22222;#FF0000;#8B0000;#DC143C;#B22222" dur="8s" repeatCount="indefinite"/>
      </stop>
    </linearGradient>

    <!-- Glow filters -->
    <filter id="glowCyan" x="-50%" y="-50%" width="200%" height="200%">
      <feGaussianBlur stdDeviation="6" result="blur"/>
      <feFlood flood-color="#FF0000" flood-opacity="0.8" result="color"/>
      <feComposite in="color" in2="blur" operator="in" result="glow"/>
      <feMerge>
        <feMergeNode in="glow"/>
        <feMergeNode in="glow"/>
        <feMergeNode in="SourceGraphic"/>
      </feMerge>
    </filter>

    <filter id="glowName" x="-50%" y="-50%" width="200%" height="200%">
      <feGaussianBlur stdDeviation="4" result="blur"/>
      <feFlood flood-color="#FF0000" flood-opacity="0.6" result="color"/>
      <feComposite in="color" in2="blur" operator="in" result="glow"/>
      <feMerge>
        <feMergeNode in="glow"/>
        <feMergeNode in="glow"/>
        <feMergeNode in="glow"/>
        <feMergeNode in="SourceGraphic"/>
      </feMerge>
    </filter>

    <filter id="glowSoft" x="-50%" y="-50%" width="200%" height="200%">
      <feGaussianBlur stdDeviation="3" result="blur"/>
      <feFlood flood-color="#FF0000" flood-opacity="0.4" result="color"/>
      <feComposite in="color" in2="blur" operator="in" result="glow"/>
      <feMerge>
        <feMergeNode in="glow"/>
        <feMergeNode in="SourceGraphic"/>
      </feMerge>
    </filter>

    <filter id="glowPurple" x="-50%" y="-50%" width="200%" height="200%">
      <feGaussianBlur stdDeviation="3" result="blur"/>
      <feFlood flood-color="#8B0000" flood-opacity="0.5" result="color"/>
      <feComposite in="color" in2="blur" operator="in" result="glow"/>
      <feMerge>
        <feMergeNode in="glow"/>
        <feMergeNode in="SourceGraphic"/>
      </feMerge>
    </filter>

    <filter id="glowGreen" x="-50%" y="-50%" width="200%" height="200%">
      <feGaussianBlur stdDeviation="2.5" result="blur"/>
      <feFlood flood-color="#DC143C" flood-opacity="0.5" result="color"/>
      <feComposite in="color" in2="blur" operator="in" result="glow"/>
      <feMerge>
        <feMergeNode in="glow"/>
        <feMergeNode in="SourceGraphic"/>
      </feMerge>
    </filter>

    <!-- Scanline pattern -->
    <pattern id="scanlines" width="4" height="4" patternUnits="userSpaceOnUse">
      <rect width="4" height="2" fill="rgba(255,255,255,0.015)"/>
    </pattern>

    <!-- Grid pattern -->
    <pattern id="grid" width="40" height="40" patternUnits="userSpaceOnUse">
      <path d="M 40 0 L 0 0 0 40" fill="none" stroke="rgba(0,247,255,0.04)" stroke-width="0.5"/>
    </pattern>

    <!-- Text gradient for name -->
    <linearGradient id="nameGrad" x1="0%" y1="0%" x2="100%" y2="0%">
      <stop offset="0%" style="stop-color:#FF0000">
        <animate attributeName="stop-color" values="#FF0000;#8B0000;#DC143C;#FF0000" dur="6s" repeatCount="indefinite"/>
      </stop>
      <stop offset="50%" style="stop-color:#FFFFFF"/>
      <stop offset="100%" style="stop-color:#8B0000">
        <animate attributeName="stop-color" values="#8B0000;#DC143C;#FF0000;#8B0000" dur="6s" repeatCount="indefinite"/>
      </stop>
    </linearGradient>

    <!-- Clip for border animation -->
    <clipPath id="borderClip">
      <rect x="2" y="2" width="1196" height="416" rx="12"/>
    </clipPath>
  </defs>

  <style>
    @keyframes float1 { 0%,100%{opacity:0.1;transform:translateY(0)} 50%{opacity:0.6;transform:translateY(-8px)} }
    @keyframes float2 { 0%,100%{opacity:0.15;transform:translateY(0)} 50%{opacity:0.5;transform:translateY(-6px)} }
    @keyframes float3 { 0%,100%{opacity:0.05;transform:translateY(0)} 50%{opacity:0.4;transform:translateY(-10px)} }
    @keyframes pulse { 0%,100%{opacity:0.3} 50%{opacity:0.8} }
    @keyframes slideLine { 0%{x1:0;x2:0} 50%{x1:0;x2:1200} 100%{x1:1200;x2:1200} }
    @keyframes dashMove { 0%{stroke-dashoffset:0} 100%{stroke-dashoffset:-60} }
    @keyframes particleFade { 0%,100%{opacity:0} 20%{opacity:0.8} 80%{opacity:0.6} }
    @keyframes heatPulse1 { 0%,100%{opacity:0.08} 50%{opacity:0.25} }
    @keyframes heatPulse2 { 0%,100%{opacity:0.05} 50%{opacity:0.2} }
    @keyframes heatPulse3 { 0%,100%{opacity:0.1} 50%{opacity:0.3} }
    @keyframes heatPulse4 { 0%,100%{opacity:0.03} 50%{opacity:0.18} }
    @keyframes borderGlow { 0%,100%{stroke-opacity:0.3} 50%{stroke-opacity:0.8} }
    @keyframes subtitleFade { 0%,100%{opacity:0.7} 50%{opacity:1} }
    @keyframes cornerPulse { 0%,100%{opacity:0.3} 50%{opacity:1} }

    .heat-1 { animation: heatPulse1 3s ease-in-out infinite; }
    .heat-2 { animation: heatPulse2 4s ease-in-out infinite 0.5s; }
    .heat-3 { animation: heatPulse3 3.5s ease-in-out infinite 1s; }
    .heat-4 { animation: heatPulse4 5s ease-in-out infinite 1.5s; }
    .heat-5 { animation: heatPulse1 4.5s ease-in-out infinite 2s; }
    .heat-6 { animation: heatPulse2 3s ease-in-out infinite 0.8s; }
    .heat-7 { animation: heatPulse3 4s ease-in-out infinite 1.2s; }
    .heat-8 { animation: heatPulse4 3.5s ease-in-out infinite 0.3s; }
  </style>

  <!-- === BASE BACKGROUND === -->
  <rect width="1200" height="420" rx="12" fill="#0D1117"/>

  <!-- === ANIMATED RGB BORDER === -->
  <rect x="1" y="1" width="1198" height="418" rx="12" fill="none" stroke="url(#rgbGrad)" stroke-width="2">
    <animate attributeName="stroke-opacity" values="0.4;0.9;0.4" dur="4s" repeatCount="indefinite"/>
  </rect>

  <!-- === GRID OVERLAY === -->
  <rect width="1200" height="420" rx="12" fill="url(#grid)" opacity="1"/>

  <!-- === SCANLINES === -->
  <rect width="1200" height="420" rx="12" fill="url(#scanlines)"/>

  <!-- === CONTRIBUTION HEATMAP BACKGROUND === -->
  <!-- Row 1 -->
  <rect x="60" y="40" width="10" height="10" rx="2" fill="#FF0000" class="heat-1"/>
  <rect x="75" y="40" width="10" height="10" rx="2" fill="#8B0000" class="heat-2"/>
  <rect x="90" y="40" width="10" height="10" rx="2" fill="#DC143C" class="heat-3"/>
  <rect x="105" y="40" width="10" height="10" rx="2" fill="#FF0000" class="heat-4"/>
  <rect x="120" y="40" width="10" height="10" rx="2" fill="#B22222" class="heat-5"/>
  <rect x="135" y="40" width="10" height="10" rx="2" fill="#8B0000" class="heat-6"/>
  <rect x="150" y="40" width="10" height="10" rx="2" fill="#FF0000" class="heat-7"/>
  <rect x="165" y="40" width="10" height="10" rx="2" fill="#DC143C" class="heat-8"/>
  <rect x="180" y="40" width="10" height="10" rx="2" fill="#B22222" class="heat-1"/>
  <rect x="195" y="40" width="10" height="10" rx="2" fill="#FF0000" class="heat-3"/>
  <rect x="210" y="40" width="10" height="10" rx="2" fill="#8B0000" class="heat-5"/>
  <rect x="225" y="40" width="10" height="10" rx="2" fill="#DC143C" class="heat-2"/>

  <!-- Row 2 -->
  <rect x="60" y="55" width="10" height="10" rx="2" fill="#8B0000" class="heat-3"/>
  <rect x="75" y="55" width="10" height="10" rx="2" fill="#FF0000" class="heat-5"/>
  <rect x="90" y="55" width="10" height="10" rx="2" fill="#B22222" class="heat-1"/>
  <rect x="105" y="55" width="10" height="10" rx="2" fill="#DC143C" class="heat-7"/>
  <rect x="120" y="55" width="10" height="10" rx="2" fill="#FF0000" class="heat-2"/>
  <rect x="135" y="55" width="10" height="10" rx="2" fill="#8B0000" class="heat-4"/>
  <rect x="150" y="55" width="10" height="10" rx="2" fill="#B22222" class="heat-8"/>
  <rect x="165" y="55" width="10" height="10" rx="2" fill="#FF0000" class="heat-6"/>
  <rect x="180" y="55" width="10" height="10" rx="2" fill="#DC143C" class="heat-1"/>
  <rect x="195" y="55" width="10" height="10" rx="2" fill="#8B0000" class="heat-4"/>
  <rect x="210" y="55" width="10" height="10" rx="2" fill="#FF0000" class="heat-7"/>
  <rect x="225" y="55" width="10" height="10" rx="2" fill="#B22222" class="heat-2"/>

  <!-- Row 3 -->
  <rect x="60" y="70" width="10" height="10" rx="2" fill="#DC143C" class="heat-5"/>
  <rect x="75" y="70" width="10" height="10" rx="2" fill="#B22222" class="heat-8"/>
  <rect x="90" y="70" width="10" height="10" rx="2" fill="#FF0000" class="heat-2"/>
  <rect x="105" y="70" width="10" height="10" rx="2" fill="#8B0000" class="heat-6"/>
  <rect x="120" y="70" width="10" height="10" rx="2" fill="#DC143C" class="heat-3"/>
  <rect x="135" y="70" width="10" height="10" rx="2" fill="#FF0000" class="heat-1"/>
  <rect x="150" y="70" width="10" height="10" rx="2" fill="#8B0000" class="heat-7"/>
  <rect x="165" y="70" width="10" height="10" rx="2" fill="#B22222" class="heat-4"/>
  <rect x="180" y="70" width="10" height="10" rx="2" fill="#FF0000" class="heat-8"/>
  <rect x="195" y="70" width="10" height="10" rx="2" fill="#DC143C" class="heat-6"/>
  <rect x="210" y="70" width="10" height="10" rx="2" fill="#8B0000" class="heat-1"/>
  <rect x="225" y="70" width="10" height="10" rx="2" fill="#FF0000" class="heat-3"/>

  <!-- Row 4 -->
  <rect x="60" y="85" width="10" height="10" rx="2" fill="#B22222" class="heat-7"/>
  <rect x="75" y="85" width="10" height="10" rx="2" fill="#FF0000" class="heat-1"/>
  <rect x="90" y="85" width="10" height="10" rx="2" fill="#DC143C" class="heat-6"/>
  <rect x="105" y="85" width="10" height="10" rx="2" fill="#FF0000" class="heat-3"/>
  <rect x="120" y="85" width="10" height="10" rx="2" fill="#8B0000" class="heat-8"/>
  <rect x="135" y="85" width="10" height="10" rx="2" fill="#B22222" class="heat-2"/>
  <rect x="150" y="85" width="10" height="10" rx="2" fill="#FF0000" class="heat-5"/>
  <rect x="165" y="85" width="10" height="10" rx="2" fill="#DC143C" class="heat-1"/>
  <rect x="180" y="85" width="10" height="10" rx="2" fill="#8B0000" class="heat-4"/>
  <rect x="195" y="85" width="10" height="10" rx="2" fill="#FF0000" class="heat-7"/>
  <rect x="210" y="85" width="10" height="10" rx="2" fill="#B22222" class="heat-3"/>
  <rect x="225" y="85" width="10" height="10" rx="2" fill="#DC143C" class="heat-6"/>

  <!-- Right side heatmap cluster -->
  <rect x="960" y="40" width="10" height="10" rx="2" fill="#FF0000" class="heat-2"/>
  <rect x="975" y="40" width="10" height="10" rx="2" fill="#DC143C" class="heat-5"/>
  <rect x="990" y="40" width="10" height="10" rx="2" fill="#8B0000" class="heat-1"/>
  <rect x="1005" y="40" width="10" height="10" rx="2" fill="#B22222" class="heat-7"/>
  <rect x="1020" y="40" width="10" height="10" rx="2" fill="#FF0000" class="heat-3"/>
  <rect x="1035" y="40" width="10" height="10" rx="2" fill="#DC143C" class="heat-8"/>
  <rect x="1050" y="40" width="10" height="10" rx="2" fill="#8B0000" class="heat-4"/>
  <rect x="1065" y="40" width="10" height="10" rx="2" fill="#FF0000" class="heat-6"/>
  <rect x="1080" y="40" width="10" height="10" rx="2" fill="#B22222" class="heat-2"/>
  <rect x="1095" y="40" width="10" height="10" rx="2" fill="#DC143C" class="heat-5"/>
  <rect x="1110" y="40" width="10" height="10" rx="2" fill="#FF0000" class="heat-1"/>
  <rect x="1125" y="40" width="10" height="10" rx="2" fill="#8B0000" class="heat-7"/>

  <rect x="960" y="55" width="10" height="10" rx="2" fill="#8B0000" class="heat-4"/>
  <rect x="975" y="55" width="10" height="10" rx="2" fill="#FF0000" class="heat-7"/>
  <rect x="990" y="55" width="10" height="10" rx="2" fill="#DC143C" class="heat-3"/>
  <rect x="1005" y="55" width="10" height="10" rx="2" fill="#FF0000" class="heat-8"/>
  <rect x="1020" y="55" width="10" height="10" rx="2" fill="#B22222" class="heat-1"/>
  <rect x="1035" y="55" width="10" height="10" rx="2" fill="#FF0000" class="heat-6"/>
  <rect x="1050" y="55" width="10" height="10" rx="2" fill="#8B0000" class="heat-2"/>
  <rect x="1065" y="55" width="10" height="10" rx="2" fill="#DC143C" class="heat-5"/>
  <rect x="1080" y="55" width="10" height="10" rx="2" fill="#FF0000" class="heat-8"/>
  <rect x="1095" y="55" width="10" height="10" rx="2" fill="#B22222" class="heat-3"/>
  <rect x="1110" y="55" width="10" height="10" rx="2" fill="#FF0000" class="heat-6"/>
  <rect x="1125" y="55" width="10" height="10" rx="2" fill="#8B0000" class="heat-1"/>

  <rect x="960" y="70" width="10" height="10" rx="2" fill="#DC143C" class="heat-6"/>
  <rect x="975" y="70" width="10" height="10" rx="2" fill="#B22222" class="heat-2"/>
  <rect x="990" y="70" width="10" height="10" rx="2" fill="#FF0000" class="heat-7"/>
  <rect x="1005" y="70" width="10" height="10" rx="2" fill="#8B0000" class="heat-4"/>
  <rect x="1020" y="70" width="10" height="10" rx="2" fill="#FF0000" class="heat-1"/>
  <rect x="1035" y="70" width="10" height="10" rx="2" fill="#DC143C" class="heat-5"/>
  <rect x="1050" y="70" width="10" height="10" rx="2" fill="#B22222" class="heat-8"/>
  <rect x="1065" y="70" width="10" height="10" rx="2" fill="#FF0000" class="heat-3"/>
  <rect x="1080" y="70" width="10" height="10" rx="2" fill="#8B0000" class="heat-6"/>
  <rect x="1095" y="70" width="10" height="10" rx="2" fill="#DC143C" class="heat-1"/>
  <rect x="1110" y="70" width="10" height="10" rx="2" fill="#FF0000" class="heat-4"/>
  <rect x="1125" y="70" width="10" height="10" rx="2" fill="#B22222" class="heat-7"/>

  <rect x="960" y="85" width="10" height="10" rx="2" fill="#B22222" class="heat-8"/>
  <rect x="975" y="85" width="10" height="10" rx="2" fill="#FF0000" class="heat-4"/>
  <rect x="990" y="85" width="10" height="10" rx="2" fill="#8B0000" class="heat-1"/>
  <rect x="1005" y="85" width="10" height="10" rx="2" fill="#DC143C" class="heat-6"/>
  <rect x="1020" y="85" width="10" height="10" rx="2" fill="#FF0000" class="heat-3"/>
  <rect x="1035" y="85" width="10" height="10" rx="2" fill="#B22222" class="heat-7"/>
  <rect x="1050" y="85" width="10" height="10" rx="2" fill="#FF0000" class="heat-2"/>
  <rect x="1065" y="85" width="10" height="10" rx="2" fill="#8B0000" class="heat-5"/>
  <rect x="1080" y="85" width="10" height="10" rx="2" fill="#DC143C" class="heat-8"/>
  <rect x="1095" y="85" width="10" height="10" rx="2" fill="#FF0000" class="heat-4"/>
  <rect x="1110" y="85" width="10" height="10" rx="2" fill="#B22222" class="heat-1"/>
  <rect x="1125" y="85" width="10" height="10" rx="2" fill="#DC143C" class="heat-6"/>

  <!-- Bottom-left heatmap -->
  <rect x="60" y="310" width="10" height="10" rx="2" fill="#FF0000" class="heat-4"/>
  <rect x="75" y="310" width="10" height="10" rx="2" fill="#8B0000" class="heat-7"/>
  <rect x="90" y="310" width="10" height="10" rx="2" fill="#DC143C" class="heat-2"/>
  <rect x="105" y="310" width="10" height="10" rx="2" fill="#B22222" class="heat-6"/>
  <rect x="120" y="310" width="10" height="10" rx="2" fill="#FF0000" class="heat-1"/>
  <rect x="135" y="310" width="10" height="10" rx="2" fill="#8B0000" class="heat-5"/>
  <rect x="150" y="310" width="10" height="10" rx="2" fill="#DC143C" class="heat-8"/>
  <rect x="165" y="310" width="10" height="10" rx="2" fill="#FF0000" class="heat-3"/>

  <rect x="60" y="325" width="10" height="10" rx="2" fill="#B22222" class="heat-6"/>
  <rect x="75" y="325" width="10" height="10" rx="2" fill="#FF0000" class="heat-3"/>
  <rect x="90" y="325" width="10" height="10" rx="2" fill="#8B0000" class="heat-8"/>
  <rect x="105" y="325" width="10" height="10" rx="2" fill="#DC143C" class="heat-1"/>
  <rect x="120" y="325" width="10" height="10" rx="2" fill="#FF0000" class="heat-7"/>
  <rect x="135" y="325" width="10" height="10" rx="2" fill="#B22222" class="heat-4"/>
  <rect x="150" y="325" width="10" height="10" rx="2" fill="#FF0000" class="heat-2"/>
  <rect x="165" y="325" width="10" height="10" rx="2" fill="#8B0000" class="heat-5"/>

  <rect x="60" y="340" width="10" height="10" rx="2" fill="#DC143C" class="heat-1"/>
  <rect x="75" y="340" width="10" height="10" rx="2" fill="#FF0000" class="heat-5"/>
  <rect x="90" y="340" width="10" height="10" rx="2" fill="#B22222" class="heat-3"/>
  <rect x="105" y="340" width="10" height="10" rx="2" fill="#FF0000" class="heat-7"/>
  <rect x="120" y="340" width="10" height="10" rx="2" fill="#8B0000" class="heat-2"/>
  <rect x="135" y="340" width="10" height="10" rx="2" fill="#DC143C" class="heat-6"/>
  <rect x="150" y="340" width="10" height="10" rx="2" fill="#FF0000" class="heat-4"/>
  <rect x="165" y="340" width="10" height="10" rx="2" fill="#B22222" class="heat-8"/>

  <rect x="60" y="355" width="10" height="10" rx="2" fill="#8B0000" class="heat-3"/>
  <rect x="75" y="355" width="10" height="10" rx="2" fill="#DC143C" class="heat-6"/>
  <rect x="90" y="355" width="10" height="10" rx="2" fill="#FF0000" class="heat-1"/>
  <rect x="105" y="355" width="10" height="10" rx="2" fill="#B22222" class="heat-5"/>
  <rect x="120" y="355" width="10" height="10" rx="2" fill="#FF0000" class="heat-8"/>
  <rect x="135" y="355" width="10" height="10" rx="2" fill="#8B0000" class="heat-2"/>
  <rect x="150" y="355" width="10" height="10" rx="2" fill="#DC143C" class="heat-7"/>
  <rect x="165" y="355" width="10" height="10" rx="2" fill="#FF0000" class="heat-4"/>

  <!-- Bottom-right heatmap -->
  <rect x="1020" y="310" width="10" height="10" rx="2" fill="#FF0000" class="heat-5"/>
  <rect x="1035" y="310" width="10" height="10" rx="2" fill="#8B0000" class="heat-2"/>
  <rect x="1050" y="310" width="10" height="10" rx="2" fill="#DC143C" class="heat-7"/>
  <rect x="1065" y="310" width="10" height="10" rx="2" fill="#B22222" class="heat-1"/>
  <rect x="1080" y="310" width="10" height="10" rx="2" fill="#FF0000" class="heat-4"/>
  <rect x="1095" y="310" width="10" height="10" rx="2" fill="#8B0000" class="heat-8"/>
  <rect x="1110" y="310" width="10" height="10" rx="2" fill="#DC143C" class="heat-3"/>
  <rect x="1125" y="310" width="10" height="10" rx="2" fill="#FF0000" class="heat-6"/>

  <rect x="1020" y="325" width="10" height="10" rx="2" fill="#B22222" class="heat-7"/>
  <rect x="1035" y="325" width="10" height="10" rx="2" fill="#FF0000" class="heat-4"/>
  <rect x="1050" y="325" width="10" height="10" rx="2" fill="#8B0000" class="heat-1"/>
  <rect x="1065" y="325" width="10" height="10" rx="2" fill="#DC143C" class="heat-6"/>
  <rect x="1080" y="325" width="10" height="10" rx="2" fill="#FF0000" class="heat-3"/>
  <rect x="1095" y="325" width="10" height="10" rx="2" fill="#B22222" class="heat-8"/>
  <rect x="1110" y="325" width="10" height="10" rx="2" fill="#FF0000" class="heat-2"/>
  <rect x="1125" y="325" width="10" height="10" rx="2" fill="#8B0000" class="heat-5"/>

  <rect x="1020" y="340" width="10" height="10" rx="2" fill="#DC143C" class="heat-2"/>
  <rect x="1035" y="340" width="10" height="10" rx="2" fill="#FF0000" class="heat-6"/>
  <rect x="1050" y="340" width="10" height="10" rx="2" fill="#B22222" class="heat-4"/>
  <rect x="1065" y="340" width="10" height="10" rx="2" fill="#FF0000" class="heat-8"/>
  <rect x="1080" y="340" width="10" height="10" rx="2" fill="#8B0000" class="heat-1"/>
  <rect x="1095" y="340" width="10" height="10" rx="2" fill="#DC143C" class="heat-5"/>
  <rect x="1110" y="340" width="10" height="10" rx="2" fill="#FF0000" class="heat-7"/>
  <rect x="1125" y="340" width="10" height="10" rx="2" fill="#B22222" class="heat-3"/>

  <rect x="1020" y="355" width="10" height="10" rx="2" fill="#8B0000" class="heat-4"/>
  <rect x="1035" y="355" width="10" height="10" rx="2" fill="#DC143C" class="heat-7"/>
  <rect x="1050" y="355" width="10" height="10" rx="2" fill="#FF0000" class="heat-2"/>
  <rect x="1065" y="355" width="10" height="10" rx="2" fill="#B22222" class="heat-6"/>
  <rect x="1080" y="355" width="10" height="10" rx="2" fill="#FF0000" class="heat-3"/>
  <rect x="1095" y="355" width="10" height="10" rx="2" fill="#8B0000" class="heat-1"/>
  <rect x="1110" y="355" width="10" height="10" rx="2" fill="#DC143C" class="heat-8"/>
  <rect x="1125" y="355" width="10" height="10" rx="2" fill="#FF0000" class="heat-5"/>

  <!-- === FLOATING PARTICLE LIGHTS === -->
  <circle cx="100" cy="150" r="2" fill="#FF0000" filter="url(#glowCyan)">
    <animate attributeName="opacity" values="0;0.7;0" dur="4s" repeatCount="indefinite"/>
    <animate attributeName="cy" values="150;130;150" dur="4s" repeatCount="indefinite"/>
  </circle>
  <circle cx="250" cy="280" r="1.5" fill="#8B0000" filter="url(#glowPurple)">
    <animate attributeName="opacity" values="0;0.6;0" dur="5s" repeatCount="indefinite" begin="0.5s"/>
    <animate attributeName="cy" values="280;260;280" dur="5s" repeatCount="indefinite" begin="0.5s"/>
  </circle>
  <circle cx="400" cy="100" r="2" fill="#DC143C" filter="url(#glowGreen)">
    <animate attributeName="opacity" values="0;0.5;0" dur="6s" repeatCount="indefinite" begin="1s"/>
    <animate attributeName="cy" values="100;85;100" dur="6s" repeatCount="indefinite" begin="1s"/>
  </circle>
  <circle cx="780" cy="320" r="1.5" fill="#FF0000" filter="url(#glowCyan)">
    <animate attributeName="opacity" values="0;0.6;0" dur="4.5s" repeatCount="indefinite" begin="2s"/>
    <animate attributeName="cy" values="320;300;320" dur="4.5s" repeatCount="indefinite" begin="2s"/>
  </circle>
  <circle cx="950" cy="150" r="2" fill="#8B0000" filter="url(#glowPurple)">
    <animate attributeName="opacity" values="0;0.7;0" dur="5.5s" repeatCount="indefinite" begin="1.5s"/>
    <animate attributeName="cy" values="150;135;150" dur="5.5s" repeatCount="indefinite" begin="1.5s"/>
  </circle>
  <circle cx="1100" cy="220" r="1.5" fill="#DC143C" filter="url(#glowGreen)">
    <animate attributeName="opacity" values="0;0.5;0" dur="4s" repeatCount="indefinite" begin="3s"/>
    <animate attributeName="cy" values="220;205;220" dur="4s" repeatCount="indefinite" begin="3s"/>
  </circle>
  <circle cx="550" cy="350" r="2" fill="#B22222" filter="url(#glowCyan)">
    <animate attributeName="opacity" values="0;0.6;0" dur="5s" repeatCount="indefinite" begin="0.8s"/>
    <animate attributeName="cy" values="350;335;350" dur="5s" repeatCount="indefinite" begin="0.8s"/>
  </circle>
  <circle cx="680" cy="80" r="1.5" fill="#FF0000" filter="url(#glowCyan)">
    <animate attributeName="opacity" values="0;0.5;0" dur="6s" repeatCount="indefinite" begin="2.5s"/>
    <animate attributeName="cy" values="80;65;80" dur="6s" repeatCount="indefinite" begin="2.5s"/>
  </circle>
  <circle cx="320" cy="380" r="2" fill="#8B0000" filter="url(#glowPurple)">
    <animate attributeName="opacity" values="0;0.7;0" dur="4s" repeatCount="indefinite" begin="1.2s"/>
    <animate attributeName="cy" values="380;365;380" dur="4s" repeatCount="indefinite" begin="1.2s"/>
  </circle>
  <circle cx="850" cy="380" r="1.5" fill="#DC143C" filter="url(#glowGreen)">
    <animate attributeName="opacity" values="0;0.6;0" dur="5s" repeatCount="indefinite" begin="3.5s"/>
    <animate attributeName="cy" values="380;365;380" dur="5s" repeatCount="indefinite" begin="3.5s"/>
  </circle>

  <!-- === HORIZONTAL SCAN LINES (animated) === -->
  <line x1="0" y1="130" x2="1200" y2="130" stroke="#FF0000" stroke-width="0.3" opacity="0.15">
    <animate attributeName="opacity" values="0.05;0.2;0.05" dur="6s" repeatCount="indefinite"/>
  </line>
  <line x1="0" y1="290" x2="1200" y2="290" stroke="#8B0000" stroke-width="0.3" opacity="0.1">
    <animate attributeName="opacity" values="0.05;0.15;0.05" dur="8s" repeatCount="indefinite" begin="2s"/>
  </line>

  <!-- === CORNER DECORATIONS === -->
  <!-- Top-left corner -->
  <path d="M 20 35 L 20 20 L 50 20" fill="none" stroke="#FF0000" stroke-width="1.5" opacity="0.6">
    <animate attributeName="opacity" values="0.3;0.9;0.3" dur="3s" repeatCount="indefinite"/>
  </path>
  <circle cx="20" cy="20" r="2" fill="#FF0000">
    <animate attributeName="opacity" values="0.4;1;0.4" dur="3s" repeatCount="indefinite"/>
  </circle>

  <!-- Top-right corner -->
  <path d="M 1180 35 L 1180 20 L 1150 20" fill="none" stroke="#8B0000" stroke-width="1.5" opacity="0.6">
    <animate attributeName="opacity" values="0.3;0.9;0.3" dur="3s" repeatCount="indefinite" begin="0.5s"/>
  </path>
  <circle cx="1180" cy="20" r="2" fill="#8B0000">
    <animate attributeName="opacity" values="0.4;1;0.4" dur="3s" repeatCount="indefinite" begin="0.5s"/>
  </circle>

  <!-- Bottom-left corner -->
  <path d="M 20 385 L 20 400 L 50 400" fill="none" stroke="#DC143C" stroke-width="1.5" opacity="0.6">
    <animate attributeName="opacity" values="0.3;0.9;0.3" dur="3s" repeatCount="indefinite" begin="1s"/>
  </path>
  <circle cx="20" cy="400" r="2" fill="#DC143C">
    <animate attributeName="opacity" values="0.4;1;0.4" dur="3s" repeatCount="indefinite" begin="1s"/>
  </circle>

  <!-- Bottom-right corner -->
  <path d="M 1180 385 L 1180 400 L 1150 400" fill="none" stroke="#B22222" stroke-width="1.5" opacity="0.6">
    <animate attributeName="opacity" values="0.3;0.9;0.3" dur="3s" repeatCount="indefinite" begin="1.5s"/>
  </path>
  <circle cx="1180" cy="400" r="2" fill="#B22222">
    <animate attributeName="opacity" values="0.4;1;0.4" dur="3s" repeatCount="indefinite" begin="1.5s"/>
  </circle>

  <!-- === MAIN DEVELOPER NAME === -->
  <text x="600" y="175" text-anchor="middle" font-family="'Courier New', 'Fira Code', monospace" font-size="52" font-weight="bold" fill="url(#nameGrad)" filter="url(#glowName)" letter-spacing="4">
    MATHIYAZHAGAN NTL
  </text>

  <!-- === SUBTITLE / ALIAS === -->
  <text x="600" y="220" text-anchor="middle" font-family="'Courier New', 'Fira Code', monospace" font-size="18" fill="#8B0000" filter="url(#glowSoft)" letter-spacing="6" opacity="0.9">
    <animate attributeName="opacity" values="0.6;1;0.6" dur="4s" repeatCount="indefinite"/>
    SILENT THUNDER DEVELOPER
  </text>

  <!-- === DECORATIVE LINE UNDER SUBTITLE === -->
  <line x1="380" y1="240" x2="820" y2="240" stroke="url(#rgbGrad)" stroke-width="1" opacity="0.5">
    <animate attributeName="opacity" values="0.3;0.7;0.3" dur="4s" repeatCount="indefinite"/>
  </line>

  <!-- === TAGLINE === -->
  <text x="600" y="270" text-anchor="middle" font-family="'Courier New', 'Fira Code', monospace" font-size="14" fill="#DC143C" filter="url(#glowGreen)" letter-spacing="3" opacity="0.8">
    <animate attributeName="opacity" values="0.5;0.9;0.5" dur="5s" repeatCount="indefinite"/>
    NEXT TO LEARN FOR YOUR FUTURE
  </text>

  <!-- === STATUS INDICATORS === -->
  <!-- Left status -->
  <circle cx="340" cy="315" r="4" fill="#DC143C" opacity="0.8">
    <animate attributeName="opacity" values="0.4;1;0.4" dur="2s" repeatCount="indefinite"/>
  </circle>
  <text x="355" y="319" font-family="'Courier New', monospace" font-size="11" fill="#555555" letter-spacing="2">SYSTEM ONLINE</text>

  <!-- Right status -->
  <circle cx="760" cy="315" r="4" fill="#FF0000" opacity="0.8">
    <animate attributeName="opacity" values="0.4;1;0.4" dur="2s" repeatCount="indefinite" begin="0.5s"/>
  </circle>
  <text x="775" y="319" font-family="'Courier New', monospace" font-size="11" fill="#555555" letter-spacing="2">ALWAYS BUILDING</text>

  <!-- === BOTTOM DASHED LINES === -->
  <line x1="250" y1="370" x2="950" y2="370" stroke="#FF0000" stroke-width="0.5" stroke-dasharray="8 6" opacity="0.2">
    <animate attributeName="stroke-dashoffset" values="0;-60" dur="4s" repeatCount="indefinite"/>
  </line>
  <line x1="300" y1="385" x2="900" y2="385" stroke="#8B0000" stroke-width="0.5" stroke-dasharray="6 8" opacity="0.15">
    <animate attributeName="stroke-dashoffset" values="0;60" dur="5s" repeatCount="indefinite"/>
  </line>

  <!-- === VERSION TAG === -->
  <text x="600" y="405" text-anchor="middle" font-family="'Courier New', monospace" font-size="10" fill="#333333" letter-spacing="4">v2026.03 // CYBERPUNK PROFILE SYSTEM</text>

</svg>
